<?xml version="1.0" encoding="UTF-8" standalone="no"?><svg xmlns="http://www.w3.org/2000/svg" xmlns:svg="http://www.w3.org/2000/svg" xmlns:xlink= "http://www.w3.org/1999/xlink" width="210mm" height="297mm" viewBox="0 0 210 297" version="1.1"><defs><style type="text/css"><![CDATA[
]]></style></defs><g transform="translate(0,0)"><rect x="0" y="0" width="210" height="157.5" fill="rgba(238,238,238,1.000000)"/><path d="M0 0 L210 0 L210 157.5 L0 157.5 L0 0 Z" fill="rgba(238,238,238,1.000000)" stroke="rgba(0,255,0,1.000000)" stroke-width=".328125"/><rect x="6.5625" y="6.5625" width="196.875" height="144.375" fill="rgba(221,221,221,1.000000)"/><rect x="16.40625" y="16.40625" width="177.1875" height="124.6875" fill="rgba(204,204,204,1.000000)"/><rect x="16.40625" y="16.40625" width="44.296875" height="124.6875" fill="rgba(238,238,238,1.000000)"/><path d="M16.40625 16.40625 L60.703125 16.40625 L60.703125 141.09375 L16.40625 141.09375 L16.40625 16.40625 Z" fill="rgba(238,238,238,1.000000)" stroke="rgba(0,255,0,1.000000)" stroke-width=".328125"/><rect x="22.96875" y="22.96875" width="31.171875" height="111.5625" fill="rgba(221,221,221,1.000000)"/><rect x="32.8125" y="32.8125" width="11.484375" height="91.875" fill="rgba(204,204,204,1.000000)"/><rect x="60.703125" y="16.40625" width="44.296875" height="124.6875" fill="rgba(238,238,238,1.000000)"/><path d="M60.703125 16.40625 L105 16.40625 L105 141.09375 L60.703125 141.09375 L60.703125 16.40625 Z" fill="rgba(238,238,238,1.000000)" stroke="rgba(0,255,0,1.000000)" stroke-width=".328125"/><rect x="67.265625" y="22.96875" width="31.171875" height="111.5625" fill="rgba(221,221,221,1.000000)"/><rect x="77.109375" y="32.8125" width="11.484375" height="91.875" fill="rgba(204,204,204,1.000000)"/><rect x="105" y="16.40625" width="44.296875" height="124.6875" fill="rgba(238,238,238,1.000000)"/><path d="M105 16.40625 L149.296875 16.40625 L149.296875 141.09375 L105 141.09375 L105 16.40625 Z" fill="rgba(238,238,238,1.000000)" stroke="rgba(0,255,0,1.000000)" stroke-width=".328125"/><rect x="111.5625" y="22.96875" width="31.171875" height="111.5625" fill="rgba(221,221,221,1.000000)"/><rect x="121.40625" y="32.8125" width="11.484375" height="91.875" fill="rgba(204,204,204,1.000000)"/><rect x="149.296875" y="16.40625" width="44.296875" height="124.6875" fill="rgba(238,238,238,1.000000)"/><path d="M149.296875 16.40625 L193.59375 16.40625 L193.59375 141.09375 L149.296875 141.09375 L149.296875 16.40625 Z" fill="rgba(238,238,238,1.000000)" stroke="rgba(0,255,0,1.000000)" stroke-width=".328125"/><rect x="155.859375" y="22.96875" width="31.171875" height="111.5625" fill="rgba(221,221,221,1.000000)"/><rect x="165.703125" y="32.8125" width="11.484375" height="91.875" fill="rgba(204,204,204,1.000000)"/></g></svg>