<?xml version="1.0" encoding="UTF-8" standalone="no"?><svg xmlns="http://www.w3.org/2000/svg" xmlns:svg="http://www.w3.org/2000/svg" xmlns:xlink= "http://www.w3.org/1999/xlink" width="210mm" height="297mm" viewBox="0 0 210 297" version="1.1"><defs><style type="text/css"><![CDATA[
]]></style></defs><g transform="translate(0,0)"><rect x="0" y="0" width="210" height="157,5" fill="rgba(238,238,238,1,000000)"/><path d="M0 0 L210 0 L210 157,5 L0 157,5 L0 0 Z" fill="rgba(238,238,238,1,000000)" stroke="rgba(0,255,0,1,000000)" stroke-width="0,328125"/><rect x="3,28125" y="3,28125" width="203,438" height="150,938" fill="rgba(221,221,221,1,000000)"/><rect x="6,5625" y="6,5625" width="196,875" height="144,375" fill="rgba(204,204,204,1,000000)"/><rect x="6,5625" y="6,5625" width="196,875" height="36,0938" fill="rgba(238,238,238,1,000000)"/><path d="M6,5625 6,5625 L203,438 6,5625 L203,438 42,6562 L6,5625 42,6562 L6,5625 6,5625 Z" fill="rgba(238,238,238,1,000000)" stroke="rgba(0,255,0,1,000000)" stroke-width="0,328125"/><rect x="9,84375" y="9,84375" width="190,312" height="29,5312" fill="rgba(221,221,221,1,000000)"/><rect x="13,125" y="13,125" width="183,75" height="22,9688" fill="rgba(204,204,204,1,000000)"/><rect x="6,5625" y="42,6562" width="196,875" height="36,0938" fill="rgba(238,238,238,1,000000)"/><path d="M6,5625 42,6562 L203,438 42,6562 L203,438 78,75 L6,5625 78,75 L6,5625 42,6562 Z" fill="rgba(238,238,238,1,000000)" stroke="rgba(0,255,0,1,000000)" stroke-width="0,328125"/><rect x="9,84375" y="45,9375" width="190,312" height="29,5312" fill="rgba(221,221,221,1,000000)"/><rect x="13,125" y="49,2188" width="183,75" height="22,9688" fill="rgba(204,204,204,1,000000)"/><rect x="6,5625" y="78,75" width="196,875" height="36,0938" fill="rgba(238,238,238,1,000000)"/><path d="M6,5625 78,75 L203,438 78,75 L203,438 114,844 L6,5625 114,844 L6,5625 78,75 Z" fill="rgba(238,238,238,1,000000)" stroke="rgba(0,255,0,1,000000)" stroke-width="0,328125"/><rect x="9,84375" y="82,0312" width="190,312" height="29,5312" fill="rgba(221,221,221,1,000000)"/><rect x="13,125" y="85,3125" width="183,75" height="22,9688" fill="rgba(204,204,204,1,000000)"/><rect x="6,5625" y="114,844" width="196,875" height="36,0938" fill="rgba(238,238,238,1,000000)"/><path d="M6,5625 114,844 L203,438 114,844 L203,438 150,938 L6,5625 150,938 L6,5625 114,844 Z" fill="rgba(238,238,238,1,000000)" stroke="rgba(0,255,0,1,000000)" stroke-width="0,328125"/><rect x="9,84375" y="118,125" width="190,312" height="29,5312" fill="rgba(221,221,221,1,000000)"/><rect x="13,125" y="121,406" width="183,75" height="22,9688" fill="rgba(204,204,204,1,000000)"/></g></svg>